<svg id="Capa_1" enable-background="new 0 0 512 512" height="512" viewBox="0 0 512 512" width="512" xmlns="http://www.w3.org/2000/svg"><g><path d="m0 166c-.007 3.591 1.273 7.13 3.794 9.961l241 270-12.114-149.633-66.68-130.328-111.625-30z" fill="#96fff6"/><path d="m267.206 445.961 241.307-270c2.525-2.831 3.495-6.37 3.487-9.961l-72.655-30-93.244 30-64.996 124.048z" fill="#76e2f8"/><path d="m256 136-90 30 78.794 279.961c2.842 3.208 6.929 5.039 11.206 5.039s8.364-1.831 11.206-5.039l78.794-279.961z" fill="#76e2f8"/><path d="m346 166-90-30v315c4.277 0 8.364-1.831 11.206-5.039z" fill="#66c0ee"/><path d="m436 61h-180l26.603 66.037 63.397 38.963 72.947-45.669 24.128-57.557c-2.146-1.148-4.57-1.774-7.075-1.774z" fill="#66c0ee"/><path d="m76 61c-2.505 0-4.929.626-7.075 1.774l29.22 62.972 67.855 40.254 80.073-58.419 9.927-46.581z" fill="#76e2f8"/><path d="m448.48 67.68c-1.392-2.087-3.259-3.757-5.405-4.905l-97.075 103.225h166c-.007-2.961-.872-5.848-2.52-8.32z" fill="#3aaaff"/><path d="m68.925 62.774c-2.146 1.148-4.014 2.818-5.405 4.905l-61 90c-1.648 2.473-2.513 5.36-2.52 8.321h166z" fill="#66c0ee"/><path d="m266.607 65.393c-2.929-2.93-6.769-4.393-10.607-4.393-3.84 0-7.678 1.463-10.607 4.393l-79.393 100.607h90 90z" fill="#96fff6"/><path d="m266.607 65.393c-2.929-2.93-6.769-4.393-10.607-4.393v105h90z" fill="#76e2f8"/></g></svg>